<?xml version="1.0" standalone="no"?><!DOCTYPE svg PUBLIC "-//W3C//DTD SVG 1.1//EN" "http://www.w3.org/Graphics/SVG/1.1/DTD/svg11.dtd"><svg t="1735011254300" class="icon" viewBox="0 0 1024 1024" version="1.1" xmlns="http://www.w3.org/2000/svg" p-id="3467" xmlns:xlink="http://www.w3.org/1999/xlink" width="200" height="200"><path d="M736.256 257.024l-40.96 16.9472S632.9856 213.7088 558.08 213.7088 418.4064 273.9712 418.4064 273.9712l-79.36-45.6192s80.64-81.92 190.6176-81.92 206.592 110.592 206.592 110.592z m-385.1776 502.784A260.0448 260.0448 0 0 1 256 777.6256C114.6368 777.6256 0 665.6 0 527.36s114.6368-250.112 256-250.112a258.56 258.56 0 0 1 153.6 50.0224v52.1728a183.552 183.552 0 0 0-139.008-28.16c-99.0208 19.4048-163.84 113.7664-145.3568 210.7392S239.4112 721.92 338.432 702.5664A185.344 185.344 0 0 0 418.4064 665.6v1.536c9.4208-5.12 72.4992-38.656 93.5936-54.3744a167.0144 167.0144 0 0 0 27.9552-26.6752l-56.7296-21.248 120.2176-46.7968 57.2928 113.408-66.816-24.9856a400.5376 400.5376 0 0 1-64.6656 56.32 1044.0192 1044.0192 0 0 1-99.84 56.32l0.4608 1.0752c33.6384 76.0832 131.584 106.1376 218.6752 67.1232a184.32 184.32 0 0 0 99.4816-104.6016 140.6976 140.6976 0 0 0 88.064-8.8576c74.7008-33.4848 106.5984-125.2864 71.3728-204.8s-124.416-117.2992-199.1168-83.8144a141.4656 141.4656 0 0 0-35.4304 22.8352v-2.3552l-126.2592 76.8 32.8192 32.0512L491.52 509.7472l-5.12-85.9648 40.1408 39.2704 146.3808-106.4448a214.0672 214.0672 0 0 1 138.9568-50.688c117.1456 0 212.1216 92.8256 212.1216 207.3088s-94.976 207.3088-212.1216 207.3088a215.552 215.552 0 0 1-32.768-2.4576 236.288 236.288 0 0 1-428.032 41.8304z" fill="#00C080" p-id="3468"></path></svg>